<svg width="20" height="20" viewBox="0 0 20 20" fill="none" xmlns="http://www.w3.org/2000/svg">
<path d="M8.46177 3.07709C6.54188 3.07709 5.09099 3.07434 3.93489 3.2048C2.77886 3.33527 1.85345 3.61029 1.19143 4.27306C0.529415 4.93583 0.257408 5.85949 0.127713 7.01505C-0.00202902 8.17054 1.87146e-06 9.62127 1.87146e-06 11.5389C1.87146e-06 13.4571 -0.00159051 14.9083 0.130713 16.0643C0.263016 17.2203 0.541416 18.1446 1.20497 18.8063C1.86852 19.468 2.79224 19.7425 3.94696 19.873C5.10169 20.0035 6.54942 20.0007 8.46177 20.0007C10.3744 20.0007 11.8217 20.0016 12.9766 19.87C14.1315 19.7384 15.0569 19.4626 15.72 18.8003C16.3831 18.1379 16.659 17.2138 16.7913 16.0583C16.9236 14.9028 16.9235 13.4538 16.9235 11.5389C16.925 11.437 16.9061 11.3358 16.8681 11.2412C16.8301 11.1466 16.7737 11.0605 16.7021 10.9879C16.6305 10.9153 16.5452 10.8577 16.4512 10.8183C16.3571 10.779 16.2562 10.7587 16.1543 10.7587C16.0523 10.7587 15.9514 10.779 15.8573 10.8183C15.7633 10.8577 15.678 10.9153 15.6064 10.9879C15.5349 11.0605 15.4784 11.1466 15.4404 11.2412C15.4024 11.3358 15.3836 11.437 15.385 11.5389C15.385 13.4523 15.3784 14.8793 15.2633 15.884C15.1483 16.8887 14.9363 17.4087 14.6323 17.7125C14.3282 18.0162 13.8083 18.2276 12.8038 18.342C11.7993 18.4565 10.3731 18.4622 8.46175 18.4622C6.55016 18.4622 5.12436 18.457 4.11971 18.3435C3.11507 18.23 2.59483 18.0197 2.29121 17.717C1.98758 17.4142 1.77524 16.8938 1.66018 15.8885C1.54513 14.8831 1.53849 13.4555 1.53849 11.5389C1.53849 9.62178 1.54274 8.19367 1.65567 7.18787C1.76861 6.18208 1.97932 5.6626 2.28069 5.3609C2.58206 5.0592 3.10156 4.84792 4.10766 4.73439C5.11376 4.62085 6.54265 4.61569 8.46177 4.61569C8.56371 4.61713 8.66491 4.5983 8.75951 4.56029C8.8541 4.52228 8.94019 4.46585 9.01279 4.39427C9.08538 4.3227 9.14303 4.23741 9.18237 4.14336C9.22172 4.04932 9.24198 3.94839 9.24198 3.84644C9.24198 3.7445 9.22172 3.64357 9.18237 3.54952C9.14303 3.45548 9.08538 3.37019 9.01279 3.29861C8.94019 3.22704 8.8541 3.17061 8.75951 3.13259C8.66491 3.09458 8.56371 3.07575 8.46177 3.07719V3.07709Z" fill="white"/>
<path d="M16.9111 8.2914e-05C16.7113 0.00326873 16.5205 0.0840946 16.3792 0.22545L7.14822 9.45645C7.00396 9.6007 6.92289 9.79633 6.92285 10.0003V12.3081C6.92287 12.5121 7.00392 12.7078 7.14818 12.852C7.29244 12.9963 7.48809 13.0773 7.6921 13.0773H9.99985C10.2039 13.0773 10.3995 12.9962 10.5437 12.852L19.7747 3.62097C19.919 3.4767 20 3.28106 20 3.07707C20 2.87308 19.919 2.67744 19.7747 2.53317L17.467 0.225419C17.3941 0.15254 17.3074 0.095037 17.2119 0.0563233C17.1164 0.0176095 17.0141 -0.00152613 16.9111 5.21022e-05L16.9111 8.2914e-05ZM16.9231 1.85713L18.1431 3.07708L16.9231 4.29704L15.7032 3.07708L16.9231 1.85713ZM14.6154 4.16488L15.8353 5.38484L9.68131 11.5388H8.46136V10.3189L14.6154 4.16488Z" fill="white"/>
</svg>
