<svg id="76bf695a-4c9f-444a-b58e-d00d988c0692" data-name="8e4b0a14-cb3f-468d-a9b7-eb6c28b97fa2" xmlns="http://www.w3.org/2000/svg" viewBox="0 0 24 24">
  <defs>
    <style>
      .\34 cfa1a4a-374d-4fe6-932d-15e32d1babc6 {
        fill: #4a4a4a;
      }
    </style>
  </defs>
  <title>two_hearts</title>
  <path class="4cfa1a4a-374d-4fe6-932d-15e32d1babc6" d="M23.216,6.4032a5.71831,5.71831,0,0,0-4.53484-3.29231,4.91508,4.91508,0,0,0-2.70158.51442,8.2681,8.2681,0,0,1,1.54377,1.02885c4.53484-1.02885,9.45555,7.3048-2.79808,14.301-.28937-.20584-.57885-.30865-.86833-.51449a16.3754,16.3754,0,0,1-1.35079.926c.48246.30865.96482.6173,1.54378.926l.67534.41157.67545-.41157c3.95589-2.26338,6.368-4.7327,7.5258-7.099A7.39335,7.39335,0,0,0,23.216,6.4032Z"/>
  <path class="4cfa1a4a-374d-4fe6-932d-15e32d1babc6" d="M9.915,20.91145l-.72551-.41458c-4.24941-2.17652-6.84051-4.664-8.08424-7.15143a7.3309,7.3309,0,0,1-.3109-6.8405A6.12991,6.12991,0,0,1,5.66567,3.18832,5.919,5.919,0,0,1,9.915,4.63934a5.25222,5.25222,0,0,1,4.24938-1.451A6.29019,6.29019,0,0,1,19.0357,6.505a7.04374,7.04374,0,0,1-.31093,6.84051c-1.34737,2.48745-3.93847,4.9749-8.08424,7.15143Zm1.03641-15.132A4.14716,4.14716,0,0,0,9.915,7.02316,4.14721,4.14721,0,0,0,8.87863,5.77943C3.90372,1.32273-5.11331,11.16892,9.915,19.1495c15.02838-7.98058,6.01135-17.82677,1.03644-13.37007Z"/>
</svg>
