<svg width="162" height="16" viewBox="0 0 162 16" fill="none" xmlns="http://www.w3.org/2000/svg">
<path d="M32.3711 4.44793C33.1104 4.44793 33.7746 4.59849 34.3639 4.89962C34.9531 5.20075 35.4138 5.64241 35.7459 6.22459C36.078 6.79674 36.2441 7.48934 36.2441 8.30238V12.0063C36.2441 12.2271 36.1637 12.4128 36.003 12.5634C35.853 12.7039 35.6602 12.7742 35.4245 12.7742C35.1888 12.7742 34.9906 12.7039 34.8299 12.5634C34.6799 12.4128 34.6049 12.2271 34.6049 12.0063V8.30238C34.6049 7.48934 34.3692 6.87704 33.8978 6.4655C33.4371 6.04391 32.8211 5.83312 32.0497 5.83312C31.5998 5.83312 31.1873 5.91844 30.8123 6.08908C30.4481 6.25972 30.1588 6.49059 29.9445 6.78168C29.741 7.07277 29.6392 7.399 29.6392 7.76035V12.0063C29.6392 12.2271 29.5642 12.4128 29.4142 12.5634C29.2642 12.7039 29.066 12.7742 28.8196 12.7742C28.5839 12.7742 28.3857 12.7039 28.225 12.5634C28.075 12.4128 28 12.2271 28 12.0063V1.76788C28 1.53701 28.075 1.35132 28.225 1.21079C28.3857 1.07026 28.5839 1 28.8196 1C29.066 1 29.2642 1.07026 29.4142 1.21079C29.5642 1.35132 29.6392 1.53701 29.6392 1.76788V5.45671C29.982 5.13551 30.3891 4.88959 30.8605 4.71895C31.3319 4.53827 31.8355 4.44793 32.3711 4.44793Z" fill="white"/>
<path d="M46.8604 8.51317C46.8604 8.70389 46.7908 8.86449 46.6515 8.99498C46.5123 9.11543 46.3355 9.17566 46.1212 9.17566H40.0145C40.1323 9.87829 40.4698 10.4454 41.0269 10.877C41.5947 11.3087 42.2857 11.5245 43.1 11.5245C43.4214 11.5245 43.7535 11.4693 44.0963 11.3588C44.4499 11.2484 44.7392 11.1129 44.9641 10.9523C45.1141 10.8419 45.2909 10.7867 45.4945 10.7867C45.698 10.7867 45.8587 10.8369 45.9766 10.9373C46.1694 11.0878 46.2658 11.2585 46.2658 11.4492C46.2658 11.6299 46.1801 11.7804 46.0087 11.9009C45.6445 12.1719 45.1891 12.3927 44.6427 12.5634C44.1071 12.734 43.5928 12.8193 43.1 12.8193C42.2215 12.8193 41.434 12.6437 40.7376 12.2923C40.0413 11.931 39.4949 11.4341 39.0985 10.8018C38.7128 10.1694 38.5199 9.45169 38.5199 8.64868C38.5199 7.84567 38.7021 7.12798 39.0663 6.49561C39.4413 5.8532 39.9555 5.35634 40.6091 5.00502C41.2733 4.64366 42.0233 4.46299 42.8589 4.46299C43.6839 4.46299 44.3963 4.63363 44.9963 4.97491C45.5962 5.31619 46.0569 5.79297 46.3783 6.40527C46.6997 7.01757 46.8604 7.7202 46.8604 8.51317ZM42.8589 5.75784C42.0768 5.75784 41.4394 5.95859 40.9466 6.3601C40.4644 6.76161 40.1591 7.29862 40.0305 7.97114H45.382C45.2855 7.29862 45.0177 6.76161 44.5785 6.3601C44.1392 5.95859 43.566 5.75784 42.8589 5.75784Z" fill="white"/>
<path d="M52.6227 4.46299C53.4476 4.46299 54.1922 4.64868 54.8564 5.02008C55.5314 5.38143 56.0617 5.88331 56.4474 6.52572C56.8438 7.15809 57.042 7.86575 57.042 8.64868V12.0063C57.042 12.2271 56.9617 12.4128 56.801 12.5634C56.651 12.7039 56.4581 12.7742 56.2224 12.7742C55.9867 12.7742 55.7885 12.7039 55.6278 12.5634C55.4778 12.4128 55.4028 12.2271 55.4028 12.0063V11.4492C55.0279 11.8808 54.5725 12.2171 54.0369 12.458C53.5012 12.6989 52.9226 12.8193 52.3013 12.8193C51.5299 12.8193 50.8281 12.6386 50.196 12.2773C49.5747 11.9159 49.0818 11.4191 48.7176 10.7867C48.364 10.1443 48.1873 9.43162 48.1873 8.64868C48.1873 7.86575 48.3801 7.15809 48.7658 6.52572C49.1515 5.88331 49.6818 5.38143 50.3567 5.02008C51.0424 4.64868 51.7977 4.46299 52.6227 4.46299ZM52.6227 11.4642C53.1583 11.4642 53.6405 11.3438 54.069 11.1029C54.5083 10.8519 54.8511 10.5157 55.0975 10.0941C55.3439 9.66248 55.4671 9.18068 55.4671 8.64868C55.4671 8.11669 55.3439 7.63488 55.0975 7.20326C54.8511 6.77164 54.5083 6.43538 54.069 6.19448C53.6405 5.94354 53.1583 5.81807 52.6227 5.81807C52.087 5.81807 51.5995 5.94354 51.1603 6.19448C50.7317 6.43538 50.3889 6.77164 50.1318 7.20326C49.8854 7.63488 49.7621 8.11669 49.7621 8.64868C49.7621 9.18068 49.8854 9.66248 50.1318 10.0941C50.3889 10.5157 50.7317 10.8519 51.1603 11.1029C51.5995 11.3438 52.087 11.4642 52.6227 11.4642Z" fill="white"/>
<path d="M63.7884 4.43287C64.3562 4.43287 64.8009 4.51317 65.1223 4.67378C65.4437 4.83438 65.6044 5.03513 65.6044 5.27603C65.6044 5.3463 65.599 5.39649 65.5883 5.4266C65.4919 5.7478 65.2776 5.90841 64.9455 5.90841C64.8919 5.90841 64.8116 5.89837 64.7044 5.87829C64.2759 5.80803 63.9277 5.7729 63.6599 5.7729C62.8885 5.7729 62.2671 5.93852 61.7957 6.26976C61.3243 6.601 61.0886 7.04768 61.0886 7.60979V12.0063C61.0886 12.2472 61.019 12.4329 60.8797 12.5634C60.7511 12.6939 60.5529 12.7591 60.2851 12.7591C60.028 12.7591 59.8298 12.6989 59.6905 12.5784C59.5512 12.4479 59.4816 12.2572 59.4816 12.0063V5.27603C59.4816 5.03513 59.5512 4.84943 59.6905 4.71895C59.8298 4.58846 60.028 4.52321 60.2851 4.52321C60.8208 4.52321 61.0886 4.77415 61.0886 5.27603V5.56211C61.41 5.21079 61.8064 4.93476 62.2778 4.734C62.7492 4.53325 63.2527 4.43287 63.7884 4.43287Z" fill="white"/>
<path d="M71.0414 11.2534C71.2343 11.2534 71.395 11.3237 71.5235 11.4642C71.6628 11.6048 71.7325 11.7854 71.7325 12.0063C71.7325 12.2271 71.6414 12.4078 71.4593 12.5483C71.2878 12.6888 71.0629 12.7591 70.7843 12.7591H70.495C69.9701 12.7591 69.488 12.6336 69.0487 12.3827C68.6202 12.1217 68.2827 11.7704 68.0363 11.3287C67.7899 10.8871 67.6667 10.3902 67.6667 9.83814V6.1192H66.9274C66.7024 6.1192 66.5203 6.05897 66.381 5.93852C66.2417 5.81807 66.1721 5.6675 66.1721 5.48683C66.1721 5.28607 66.2417 5.12547 66.381 5.00502C66.5203 4.88457 66.7024 4.82434 66.9274 4.82434H67.6667V2.65621C67.6667 2.43538 67.7416 2.25471 67.8916 2.11418C68.0416 1.97365 68.2345 1.90339 68.4702 1.90339C68.7059 1.90339 68.8987 1.97365 69.0487 2.11418C69.1987 2.25471 69.2737 2.43538 69.2737 2.65621V4.82434H70.6397C70.8647 4.82434 71.0468 4.88457 71.1861 5.00502C71.3253 5.12547 71.395 5.28607 71.395 5.48683C71.395 5.6675 71.3253 5.81807 71.1861 5.93852C71.0468 6.05897 70.8647 6.1192 70.6397 6.1192H69.2737V9.83814C69.2737 10.2396 69.3915 10.5759 69.6272 10.8469C69.8629 11.1179 70.1522 11.2534 70.495 11.2534H71.0414Z" fill="white"/>
<path d="M76.8327 4.46299C77.529 4.46299 78.1504 4.56838 78.6968 4.77917C79.2539 4.98996 79.6932 5.28105 80.0146 5.65245C80.1539 5.81305 80.2235 5.97365 80.2235 6.13425C80.2235 6.30489 80.1324 6.46048 79.9503 6.601C79.8325 6.6813 79.6825 6.72146 79.5003 6.72146C79.2218 6.72146 78.97 6.6261 78.745 6.43538C78.4772 6.20452 78.1933 6.04391 77.8933 5.95358C77.5933 5.8532 77.2291 5.80301 76.8005 5.80301C76.3077 5.80301 75.9006 5.88331 75.5792 6.04391C75.2685 6.19448 75.1131 6.41029 75.1131 6.69134C75.1131 6.89209 75.1667 7.06274 75.2738 7.20326C75.381 7.33375 75.5845 7.45922 75.8845 7.57967C76.1845 7.69009 76.6184 7.8005 77.1862 7.91092C78.354 8.13174 79.1789 8.43789 79.661 8.82936C80.1539 9.22083 80.4003 9.72773 80.4003 10.3501C80.4003 10.8118 80.2664 11.2334 79.9985 11.6148C79.7307 11.9862 79.3343 12.2823 78.8093 12.5031C78.2951 12.7139 77.6737 12.8193 76.9451 12.8193C76.2166 12.8193 75.531 12.7139 74.8881 12.5031C74.2453 12.2923 73.7418 12.0163 73.3775 11.675C73.2383 11.5445 73.1686 11.389 73.1686 11.2083C73.1686 10.9674 73.2757 10.7716 73.49 10.6211C73.6936 10.4806 73.8811 10.4103 74.0525 10.4103C74.2668 10.4103 74.4703 10.5006 74.6632 10.6813C74.8667 10.8921 75.1721 11.0778 75.5792 11.2384C75.9863 11.389 76.4202 11.4642 76.8809 11.4642C77.4915 11.4642 77.9629 11.3689 78.2951 11.1782C78.6379 10.9875 78.8093 10.7315 78.8093 10.4103C78.8093 10.0991 78.6432 9.84316 78.3111 9.64241C77.979 9.43162 77.4165 9.25596 76.6237 9.11543C74.5667 8.74404 73.5382 7.95107 73.5382 6.73651C73.5382 6.24467 73.6936 5.8281 74.0043 5.48683C74.315 5.14555 74.7221 4.88959 75.2256 4.71895C75.7292 4.54831 76.2648 4.46299 76.8327 4.46299Z" fill="white"/>
<path d="M86.0083 7.8808C86.244 7.8808 86.4369 7.95609 86.5869 8.10665C86.7368 8.24718 86.8118 8.42785 86.8118 8.64868C86.8118 8.86951 86.7368 9.05019 86.5869 9.19071C86.4369 9.33124 86.244 9.40151 86.0083 9.40151H82.4246C82.1889 9.40151 81.9907 9.33124 81.83 9.19071C81.68 9.05019 81.605 8.86951 81.605 8.64868C81.605 8.42785 81.68 8.24718 81.83 8.10665C81.9907 7.95609 82.1889 7.8808 82.4246 7.8808H86.0083Z" fill="white"/>
<path d="M92.4985 4.46299C93.7627 4.46299 94.8126 4.91468 95.6483 5.81807C95.7554 5.92848 95.809 6.05897 95.809 6.20954C95.809 6.43036 95.6911 6.61606 95.4554 6.76662C95.3483 6.83689 95.2251 6.87202 95.0858 6.87202C94.8394 6.87202 94.6305 6.78168 94.4591 6.601C94.1912 6.32999 93.8966 6.13425 93.5752 6.0138C93.2645 5.88331 92.9056 5.81807 92.4985 5.81807C91.6735 5.81807 91.0039 6.07905 90.4897 6.601C89.9754 7.11292 89.7183 7.79548 89.7183 8.64868C89.7183 9.19071 89.8362 9.67754 90.0719 10.1092C90.3183 10.5307 90.6558 10.862 91.0843 11.1029C91.5236 11.3438 92.0217 11.4642 92.5788 11.4642C93.3074 11.4642 93.8966 11.2886 94.3466 10.9373C94.5501 10.7967 94.7483 10.7265 94.9412 10.7265C95.0912 10.7265 95.2305 10.7716 95.359 10.862C95.5626 11.0226 95.6643 11.2033 95.6643 11.404C95.6643 11.5546 95.6001 11.6901 95.4715 11.8105C94.7001 12.4831 93.7359 12.8193 92.5788 12.8193C91.7325 12.8193 90.9718 12.6386 90.2968 12.2773C89.6219 11.9159 89.0916 11.4191 88.7059 10.7867C88.3309 10.1443 88.1434 9.43162 88.1434 8.64868C88.1434 7.84567 88.3256 7.12798 88.6898 6.49561C89.0648 5.8532 89.5844 5.35634 90.2486 5.00502C90.9129 4.64366 91.6628 4.46299 92.4985 4.46299Z" fill="white"/>
<path d="M97.9236 1.75282C97.9236 1.53199 97.9986 1.35132 98.1486 1.21079C98.2986 1.07026 98.4914 1 98.7271 1C98.9628 1 99.1557 1.07026 99.3057 1.21079C99.4557 1.35132 99.5306 1.53199 99.5306 1.75282V9.97365C99.5306 10.345 99.6056 10.6512 99.7556 10.8921C99.9056 11.133 100.098 11.2534 100.334 11.2534H100.736C100.95 11.2534 101.122 11.3237 101.25 11.4642C101.389 11.6048 101.459 11.7854 101.459 12.0063C101.459 12.2271 101.357 12.4078 101.154 12.5483C100.95 12.6888 100.688 12.7591 100.366 12.7591H100.334C99.8735 12.7591 99.4557 12.6437 99.0807 12.4128C98.7164 12.1719 98.4325 11.8407 98.229 11.4191C98.0254 10.9875 97.9236 10.5056 97.9236 9.97365V1.75282Z" fill="white"/>
<path d="M110.311 4.50816C110.557 4.50816 110.755 4.57842 110.905 4.71895C111.055 4.85947 111.13 5.04517 111.13 5.27603V11.9912C111.13 12.212 111.055 12.3977 110.905 12.5483C110.755 12.6888 110.557 12.7591 110.311 12.7591C110.075 12.7591 109.877 12.6888 109.716 12.5483C109.566 12.3977 109.491 12.212 109.491 11.9912V11.8256C109.148 12.1468 108.741 12.3977 108.27 12.5784C107.798 12.7491 107.295 12.8344 106.759 12.8344C106.02 12.8344 105.356 12.6838 104.766 12.3827C104.177 12.0816 103.717 11.6449 103.384 11.0728C103.052 10.4906 102.886 9.79297 102.886 8.97992V5.27603C102.886 5.05521 102.961 4.87453 103.111 4.734C103.272 4.58344 103.47 4.50816 103.706 4.50816C103.941 4.50816 104.134 4.58344 104.284 4.734C104.445 4.87453 104.525 5.05521 104.525 5.27603V8.97992C104.525 9.79297 104.756 10.4103 105.216 10.8319C105.688 11.2434 106.309 11.4492 107.081 11.4492C107.531 11.4492 107.938 11.3639 108.302 11.1932C108.677 11.0226 108.966 10.7917 109.17 10.5006C109.384 10.2095 109.491 9.88331 109.491 9.52196V5.27603C109.491 5.04517 109.566 4.85947 109.716 4.71895C109.877 4.57842 110.075 4.50816 110.311 4.50816Z" fill="white"/>
<path d="M114.837 1C114.59 1 114.392 1.07026 114.242 1.21079C114.092 1.35132 114.017 1.53701 114.017 1.76788V8.63363C114.017 9.41656 114.21 10.1292 114.596 10.7716C114.992 11.404 115.522 11.9059 116.187 12.2773C116.862 12.6386 117.612 12.8193 118.437 12.8193C119.261 12.8193 120.011 12.6386 120.686 12.2773C121.372 11.9059 121.908 11.404 122.293 10.7716C122.679 10.1292 122.872 9.41656 122.872 8.63363C122.872 7.85069 122.69 7.14304 122.326 6.51066C121.972 5.86826 121.479 5.36637 120.847 5.00502C120.226 4.64366 119.529 4.46299 118.758 4.46299C118.137 4.46299 117.558 4.58344 117.022 4.82434C116.487 5.06524 116.031 5.40151 115.656 5.83312V1.76788C115.656 1.53701 115.576 1.35132 115.415 1.21079C115.265 1.07026 115.072 1 114.837 1ZM118.437 11.4642C117.901 11.4642 117.413 11.3438 116.974 11.1029C116.546 10.8519 116.208 10.5107 115.962 10.079C115.715 9.64743 115.592 9.16562 115.592 8.63363C115.592 8.10163 115.715 7.62484 115.962 7.20326C116.208 6.77164 116.546 6.43538 116.974 6.19448C117.413 5.94354 117.901 5.81807 118.437 5.81807C118.972 5.81807 119.454 5.94354 119.883 6.19448C120.322 6.43538 120.665 6.77164 120.911 7.20326C121.169 7.62484 121.297 8.10163 121.297 8.63363C121.297 9.16562 121.169 9.64743 120.911 10.079C120.665 10.5107 120.322 10.8519 119.883 11.1029C119.454 11.3438 118.972 11.4642 118.437 11.4642Z" fill="white"/>
<path d="M125.783 10.9072C126.083 10.9072 126.34 11.0125 126.554 11.2233C126.779 11.4241 126.892 11.67 126.892 11.9611C126.892 12.2422 126.784 12.4881 126.57 12.6989C126.356 12.8996 126.093 13 125.783 13C125.483 13 125.22 12.8996 124.995 12.6989C124.781 12.4881 124.674 12.2422 124.674 11.9611C124.674 11.67 124.781 11.4241 124.995 11.2233C125.22 11.0125 125.483 10.9072 125.783 10.9072Z" fill="white"/>
<path d="M133.051 4.46299C134.315 4.46299 135.365 4.91468 136.201 5.81807C136.308 5.92848 136.362 6.05897 136.362 6.20954C136.362 6.43036 136.244 6.61606 136.008 6.76662C135.901 6.83689 135.778 6.87202 135.638 6.87202C135.392 6.87202 135.183 6.78168 135.012 6.601C134.744 6.32999 134.449 6.13425 134.128 6.0138C133.817 5.88331 133.458 5.81807 133.051 5.81807C132.226 5.81807 131.556 6.07905 131.042 6.601C130.528 7.11292 130.271 7.79548 130.271 8.64868C130.271 9.19071 130.389 9.67754 130.624 10.1092C130.871 10.5307 131.208 10.862 131.637 11.1029C132.076 11.3438 132.574 11.4642 133.131 11.4642C133.86 11.4642 134.449 11.2886 134.899 10.9373C135.103 10.7967 135.301 10.7265 135.494 10.7265C135.644 10.7265 135.783 10.7716 135.912 10.862C136.115 11.0226 136.217 11.2033 136.217 11.404C136.217 11.5546 136.153 11.6901 136.024 11.8105C135.253 12.4831 134.288 12.8193 133.131 12.8193C132.285 12.8193 131.524 12.6386 130.849 12.2773C130.174 11.9159 129.644 11.4191 129.258 10.7867C128.883 10.1443 128.696 9.43162 128.696 8.64868C128.696 7.84567 128.878 7.12798 129.242 6.49561C129.617 5.8532 130.137 5.35634 130.801 5.00502C131.465 4.64366 132.215 4.46299 133.051 4.46299Z" fill="white"/>
<path d="M142.783 4.46299C143.629 4.46299 144.385 4.64366 145.049 5.00502C145.724 5.35634 146.249 5.84818 146.624 6.48055C147.01 7.11292 147.202 7.83563 147.202 8.64868C147.202 9.45169 147.015 10.1694 146.64 10.8018C146.265 11.4341 145.74 11.931 145.065 12.2923C144.401 12.6437 143.64 12.8193 142.783 12.8193C141.926 12.8193 141.16 12.6437 140.485 12.2923C139.81 11.931 139.285 11.4341 138.91 10.8018C138.535 10.1694 138.348 9.45169 138.348 8.64868C138.348 7.83563 138.535 7.11292 138.91 6.48055C139.285 5.84818 139.81 5.35634 140.485 5.00502C141.16 4.64366 141.926 4.46299 142.783 4.46299ZM142.783 5.81807C142.237 5.81807 141.744 5.93852 141.305 6.17942C140.876 6.42033 140.539 6.75659 140.292 7.18821C140.046 7.61982 139.922 8.10665 139.922 8.64868C139.922 9.19071 140.046 9.67754 140.292 10.1092C140.539 10.5307 140.876 10.862 141.305 11.1029C141.744 11.3438 142.237 11.4642 142.783 11.4642C143.329 11.4642 143.817 11.3438 144.245 11.1029C144.685 10.862 145.022 10.5307 145.258 10.1092C145.504 9.67754 145.627 9.19071 145.627 8.64868C145.627 8.10665 145.504 7.61982 145.258 7.18821C145.022 6.75659 144.685 6.42033 144.245 6.17942C143.817 5.93852 143.329 5.81807 142.783 5.81807Z" fill="white"/>
<path d="M158.882 4.44793C159.814 4.44793 160.564 4.734 161.132 5.30615C161.711 5.87829 162 6.67629 162 7.70013V12.0063C162 12.2271 161.925 12.4128 161.775 12.5634C161.625 12.7039 161.427 12.7742 161.18 12.7742C160.945 12.7742 160.747 12.7039 160.586 12.5634C160.436 12.4128 160.361 12.2271 160.361 12.0063V7.70013C160.361 7.08783 160.195 6.6261 159.863 6.31493C159.541 5.99373 159.107 5.83312 158.561 5.83312C158.004 5.83312 157.543 6.0138 157.179 6.37516C156.825 6.73651 156.649 7.19824 156.649 7.76035V12.0063C156.649 12.2271 156.574 12.4128 156.424 12.5634C156.274 12.7039 156.075 12.7742 155.829 12.7742C155.593 12.7742 155.395 12.7039 155.234 12.5634C155.084 12.4128 155.009 12.2271 155.009 12.0063V7.70013C155.009 7.08783 154.843 6.6261 154.511 6.31493C154.19 5.99373 153.756 5.83312 153.21 5.83312C152.642 5.83312 152.176 6.0138 151.811 6.37516C151.458 6.73651 151.281 7.19824 151.281 7.76035V12.0063C151.281 12.2271 151.206 12.4128 151.056 12.5634C150.906 12.7039 150.708 12.7742 150.461 12.7742C150.226 12.7742 150.028 12.7039 149.867 12.5634C149.717 12.4128 149.642 12.2271 149.642 12.0063V5.30615C149.642 5.07528 149.717 4.88959 149.867 4.74906C150.028 4.60853 150.226 4.53827 150.461 4.53827C150.697 4.53827 150.89 4.60853 151.04 4.74906C151.19 4.87955 151.27 5.05521 151.281 5.27603C151.56 5.01506 151.892 4.8143 152.277 4.67378C152.663 4.52321 153.081 4.44793 153.531 4.44793C154.077 4.44793 154.565 4.55332 154.993 4.76412C155.433 4.96487 155.791 5.25596 156.07 5.63739C156.391 5.266 156.793 4.97491 157.275 4.76412C157.757 4.55332 158.293 4.44793 158.882 4.44793Z" fill="white"/>
<path d="M11.308 13.036C10.639 12.2797 10.6388 11.1434 11.3074 10.3867L14.4494 6.83103C15.1186 6.07364 15.1176 4.93597 14.447 4.17975L12.2755 1.73092C11.8609 1.26338 11.9736 0.527204 12.5635 0.321179C15.2436 -0.614784 18.2577 0.56986 19.6138 2.90131C20.6034 4.60331 20.6538 6.83926 19.2951 9.14196C18.2534 10.8897 16.4046 12.6662 13.535 14.3649C13.1311 14.6041 12.6157 14.5147 12.3047 14.1631L11.308 13.036Z" fill="white"/>
<path d="M0.724145 2.90132C2.46861 -0.102204 7.01427 -1.22018 9.99999 1.73328L12.1674 4.18193C12.8361 4.93737 12.8374 6.07255 12.1705 6.82957L9.03645 10.3872C8.36986 11.1439 8.37086 12.2785 9.03878 13.034L10.633 14.8372C10.906 15.146 10.8099 15.6262 10.4361 15.7998L9.99999 16L9.56387 15.7998C5.0853 13.6806 2.38474 11.3779 1.04284 9.12528C-0.315825 6.83927 -0.265502 4.60331 0.724145 2.90132Z" fill="white"/>
</svg>
