<svg id="8c2874e0-d23a-45a4-b932-7d838fa60228" data-name="Слой 1" xmlns="http://www.w3.org/2000/svg" viewBox="0 0 24 24">
  <defs>
    <style>
      .f426e6f3-e952-455e-a263-23b5e9cbf657 {
        fill: #4a4a4a;
      }
    </style>
  </defs>
  <title>exchange</title>
  <path class="f426e6f3-e952-455e-a263-23b5e9cbf657" d="M21.15254,4.0678H2.84746A2.78049,2.78049,0,0,0,0,6.91525V17.08475A2.84247,2.84247,0,0,0,2.84746,19.9322H21.15254A2.84247,2.84247,0,0,0,24,17.08475V6.91525A2.90883,2.90883,0,0,0,21.15254,4.0678Zm1.22034,13.01695a1.34616,1.34616,0,0,1-1.322,1.322H2.74576a1.34616,1.34616,0,0,1-1.322-1.322V6.91525a1.34616,1.34616,0,0,1,1.322-1.322H21.05085a1.34616,1.34616,0,0,1,1.322,1.322Z"/>
  <path class="f426e6f3-e952-455e-a263-23b5e9cbf657" d="M10.19491,13.22034,9.07627,14.339V8.94915a.80211.80211,0,0,0-.81356-.81356c-.50847,0-.71186.30508-.71186.81356V14.339L6.4322,13.22034a1.1017,1.1017,0,0,0-1.11864,0,.79576.79576,0,0,0,0,1.11864l2.44068,2.44068a.73729.73729,0,0,0,1.01695,0L11.21186,14.339a.798.798,0,0,0,0-1.11864A.77331.77331,0,0,0,10.19491,13.22034Z"/>
  <path class="f426e6f3-e952-455e-a263-23b5e9cbf657" d="M15.178,7.34746a.798.798,0,0,0-1.11864,0l-2.339,2.44068A.791.791,0,0,0,12.839,10.90678l1.11864-1.11864v5.49152a.80211.80211,0,0,0,.81356.81356.74845.74845,0,0,0,.81356-.81356V9.78814l1.11864,1.11864a.73729.73729,0,0,0,1.01695,0,.798.798,0,0,0,0-1.11864Z"/>
</svg>
