<svg id="bf96f8aa-2a4e-4496-9fbb-00bc78ec7f44" data-name="Слой 1" xmlns="http://www.w3.org/2000/svg" viewBox="0 0 24 24">
  <defs>
    <style>
      .\34 d3e0672-3bf8-4453-9d0b-080f6c0b59ef {
        fill: #4a4a4a;
      }
    </style>
  </defs>
  <title>notes</title>
  <g>
    <path class="4d3e0672-3bf8-4453-9d0b-080f6c0b59ef" d="M15.28377,24H4.70111a3.10078,3.10078,0,0,1-3.12659-3.14237V12.9984a1.01019,1.01019,0,0,1,2.02038,0v7.85922a1.08992,1.08992,0,0,0,1.10621,1.122H15.28377a1.09046,1.09046,0,0,0,1.10687-1.122V12.9984a1.08991,1.08991,0,0,0-1.10687-1.12134,1.01019,1.01019,0,1,1,0-2.02038A3.10118,3.10118,0,0,1,18.411,12.9984v7.85922A3.10133,3.10133,0,0,1,15.28377,24Z"/>
    <path class="4d3e0672-3bf8-4453-9d0b-080f6c0b59ef" d="M18.20713,19.06743a1.01022,1.01022,0,0,1-.18415-2.00328l2.15586-.40381a1.14426,1.14426,0,0,0,.8142-1.34692L19.37517,7.48708A1.148,1.148,0,0,0,18.023,6.51767l-1.74152.4025a1.0105,1.0105,0,0,1-.45511-1.96908l1.75073-.40447a3.18087,3.18087,0,0,1,3.77374,2.51692l1.61788,7.825a3.16,3.16,0,0,1-2.35974,3.7448l-2.21505.417A.99689.99689,0,0,1,18.20713,19.06743Z"/>
    <path class="4d3e0672-3bf8-4453-9d0b-080f6c0b59ef" d="M3.72249,6.49465A2.67866,2.67866,0,0,1,1.19767,5.17733c-.75238-1.4699.30385-3.40939,2.45708-4.511A5.61842,5.61842,0,0,1,6.45645.006a2.61214,2.61214,0,0,1,2.294,1.30351A2.61312,2.61312,0,0,1,8.46762,3.933,5.62559,5.62559,0,0,1,6.294,5.82119,5.72635,5.72635,0,0,1,3.72249,6.49465Zm2.5018-4.47417a3.76906,3.76906,0,0,0-1.64879.44393C3.34433,3.09447,2.87409,4.0185,2.99576,4.25658c.12364.23874,1.14633.39724,2.3775-.23347h0A3.64287,3.64287,0,0,0,6.76555,2.8439c.20454-.31831.22361-.54127.18678-.61361-.03683-.07169-.22887-.18612-.60638-.20651C6.30584,2.02114,6.26572,2.02049,6.22429,2.02049Z"/>
    <path class="4d3e0672-3bf8-4453-9d0b-080f6c0b59ef" d="M5.65145,10.67813a3.65233,3.65233,0,0,1-1.28115-.2144,2.31564,2.31564,0,0,1-1.40019-1.339,1.01,1.01,0,0,1,1.89147-.709c.0296.07826.1631.13548.219.15653A3.26139,3.26139,0,0,0,7.47782,8.15c1.42584-.76816,1.9283-1.76454,1.72969-2.15981a1.0106,1.0106,0,1,1,1.80729-.905c.78921,1.57711-.2953,3.61393-2.5794,4.84312A6.00313,6.00313,0,0,1,5.65145,10.67813Z"/>
    <path class="4d3e0672-3bf8-4453-9d0b-080f6c0b59ef" d="M3.781,9.7804A1.01045,1.01045,0,0,1,2.77083,8.77021,5.86516,5.86516,0,0,0,1.39761,5.38713a1.01025,1.01025,0,0,1,1.5337-1.31535A7.82341,7.82341,0,0,1,4.79121,8.77021,1.01045,1.01045,0,0,1,3.781,9.7804Z"/>
    <path class="4d3e0672-3bf8-4453-9d0b-080f6c0b59ef" d="M10.11049,6.54792A1.00815,1.00815,0,0,1,9.50477,6.346,8.239,8.239,0,0,1,6.84842,2.17109a1.01019,1.01019,0,1,1,1.94672-.54061,6.28789,6.28789,0,0,0,1.92239,3.099,1.01023,1.01023,0,0,1-.607,1.81847Z"/>
    <path class="4d3e0672-3bf8-4453-9d0b-080f6c0b59ef" d="M10.11181,14.35979a1.00864,1.00864,0,0,1-.9043-.559L7.053,9.491a1.01031,1.01031,0,1,1,1.80729-.90365l2.15454,4.31041a1.01009,1.01009,0,0,1-.903,1.462Z"/>
  </g>
</svg>
