<svg id="e3f85cfc-46d4-4933-8a15-380389893420" data-name="Слой 1" xmlns="http://www.w3.org/2000/svg" viewBox="0 0 24 24">
  <defs>
    <style>
      .\38 2a98c10-a3ad-4717-8ef8-40c7729cbda3 {
        fill: #4a4a4a;
      }
    </style>
  </defs>
  <title>two_hearts_fill</title>
  <path class="82a98c10-a3ad-4717-8ef8-40c7729cbda3" d="M23.30362,6.36141a5.76316,5.76316,0,0,0-4.57029-3.318,4.95333,4.95333,0,0,0-2.7227.51844A8.33615,8.33615,0,0,1,17.56647,4.5987c4.57018-1.03689,9.52946,7.3619-2.81995,14.41278-.29174-.20745-.58348-.31106-.87512-.51851-.389.31106-.87522.62213-1.36135.93319.48613.31106.97236.62213,1.55574.93319l.68073.41479.68062-.41479c3.98681-2.28107,6.41787-4.76969,7.58473-7.15449A7.45113,7.45113,0,0,0,23.30362,6.36141Z"/>
  <path class="82a98c10-a3ad-4717-8ef8-40c7729cbda3" d="M9.89882,20.98306l-.73118-.41782C4.885,18.3717,2.27366,15.8648,1.02022,13.35791a7.3882,7.3882,0,0,1-.31336-6.894A6.1778,6.1778,0,0,1,5.6162,3.1214,5.96525,5.96525,0,0,1,9.89882,4.58377,5.29333,5.29333,0,0,1,14.18143,3.1214a6.33935,6.33935,0,0,1,4.90934,3.34254,7.09879,7.09879,0,0,1-.31336,6.894c-1.3579,2.50689-3.96926,5.01379-8.14742,7.20733Z"/>
</svg>
